<svg width="1200" height="80" viewBox="0 0 1200 80" xmlns="http://www.w3.org/2000/svg">
  <g fill="none" stroke="#b89b72" stroke-width="2" stroke-linecap="round" stroke-linejoin="round">
    
    <!-- Main horizontal line -->
    <line x1="50" y1="40" x2="1150" y2="40"/>

    <!-- Center diamond -->
    <polygon points="595,40 600,35 605,40 600,45" fill="#b89b72" stroke="none"/>

    <!-- Left curl -->
    <path d="M560 40 
             C550 35, 545 30, 550 28
             C555 26, 560 32, 560 40
             C560 48, 555 54, 550 52
             C545 50, 550 45, 560 40"/>

    <!-- Right curl (mirror) -->
    <path d="M640 40 
             C650 35, 655 30, 650 28
             C645 26, 640 32, 640 40
             C640 48, 645 54, 650 52
             C655 50, 650 45, 640 40"/>

  </g>
</svg>